<mxfile host="Electron" agent="Mozilla/5.0 (Windows NT 10.0; Win64; x64) AppleWebKit/537.36 (KHTML, like Gecko) draw.io/26.0.4 Chrome/128.0.6613.186 Electron/32.2.5 Safari/537.36" version="26.0.4">
  <diagram name="Page-1" id="D3YL_qw_b0xkXX03b3W4">
    <mxGraphModel dx="472" dy="820" grid="1" gridSize="10" guides="1" tooltips="1" connect="1" arrows="1" fold="1" page="1" pageScale="1" pageWidth="850" pageHeight="1100" math="0" shadow="0">
      <root>
        <mxCell id="0" />
        <mxCell id="1" parent="0" />
        <mxCell id="ROnEN6a3R-uaIAG2ra3x-14" style="edgeStyle=orthogonalEdgeStyle;rounded=0;orthogonalLoop=1;jettySize=auto;html=1;exitX=0;exitY=0.5;exitDx=0;exitDy=0;exitPerimeter=0;entryX=0.947;entryY=0.445;entryDx=0;entryDy=0;entryPerimeter=0;endArrow=none;endFill=0;strokeWidth=3;fontStyle=0" parent="1" source="ROnEN6a3R-uaIAG2ra3x-13" edge="1">
          <mxGeometry relative="1" as="geometry">
            <mxPoint x="409.93000000000006" y="132" as="targetPoint" />
          </mxGeometry>
        </mxCell>
        <mxCell id="ROnEN6a3R-uaIAG2ra3x-12" style="edgeStyle=orthogonalEdgeStyle;rounded=0;orthogonalLoop=1;jettySize=auto;html=1;exitX=1;exitY=0.5;exitDx=0;exitDy=0;exitPerimeter=0;entryX=0.016;entryY=0.645;entryDx=0;entryDy=0;entryPerimeter=0;endArrow=none;endFill=0;fontStyle=0" parent="1" source="ROnEN6a3R-uaIAG2ra3x-11" target="ROnEN6a3R-uaIAG2ra3x-1" edge="1">
          <mxGeometry relative="1" as="geometry" />
        </mxCell>
        <mxCell id="ROnEN6a3R-uaIAG2ra3x-1" value="" style="rounded=0;whiteSpace=wrap;html=1;fontStyle=0" parent="1" vertex="1">
          <mxGeometry x="230" y="40" width="190" height="200" as="geometry" />
        </mxCell>
        <mxCell id="ROnEN6a3R-uaIAG2ra3x-2" value="CenterPattern" style="text;html=1;align=center;verticalAlign=bottom;whiteSpace=wrap;rounded=0;fontFamily=Lucida Console;fontStyle=0" parent="1" vertex="1">
          <mxGeometry x="230" y="218" width="190" height="20" as="geometry" />
        </mxCell>
        <mxCell id="ROnEN6a3R-uaIAG2ra3x-3" value="countBits" style="text;html=1;align=left;verticalAlign=bottom;whiteSpace=wrap;rounded=0;fontFamily=Lucida Console;fontStyle=0" parent="1" vertex="1">
          <mxGeometry x="240" y="92" width="70" height="20" as="geometry" />
        </mxCell>
        <mxCell id="ROnEN6a3R-uaIAG2ra3x-4" value="directionMode" style="text;html=1;align=left;verticalAlign=bottom;whiteSpace=wrap;rounded=0;fontFamily=Lucida Console;fontStyle=0" parent="1" vertex="1">
          <mxGeometry x="240" y="157" width="70" height="20" as="geometry" />
        </mxCell>
        <mxCell id="ROnEN6a3R-uaIAG2ra3x-5" value="mask" style="text;html=1;align=right;verticalAlign=bottom;whiteSpace=wrap;rounded=0;fontFamily=Lucida Console;fontStyle=0" parent="1" vertex="1">
          <mxGeometry x="335" y="122" width="70" height="20" as="geometry" />
        </mxCell>
        <mxCell id="ROnEN6a3R-uaIAG2ra3x-6" value="sw" style="html=1;shadow=0;dashed=0;align=center;verticalAlign=middle;shape=mxgraph.arrows2.arrow;dy=0;dx=10;notch=0;fontFamily=Lucida Console;fontStyle=0" parent="1" vertex="1">
          <mxGeometry x="40" y="92" width="60" height="25" as="geometry" />
        </mxCell>
        <mxCell id="ROnEN6a3R-uaIAG2ra3x-7" value="" style="endArrow=none;html=1;rounded=0;strokeWidth=3;entryX=0.005;entryY=0.645;entryDx=0;entryDy=0;entryPerimeter=0;fontStyle=0" parent="1" edge="1">
          <mxGeometry width="50" height="50" relative="1" as="geometry">
            <mxPoint x="100" y="103.82000000000005" as="sourcePoint" />
            <mxPoint x="230.95000000000005" y="104" as="targetPoint" />
            <Array as="points">
              <mxPoint x="110" y="103.82000000000005" />
            </Array>
          </mxGeometry>
        </mxCell>
        <mxCell id="ROnEN6a3R-uaIAG2ra3x-10" value="3" style="text;html=1;align=center;verticalAlign=bottom;whiteSpace=wrap;rounded=0;fontFamily=Lucida Console;fontStyle=0" parent="1" vertex="1">
          <mxGeometry x="140" y="119" width="61" height="20" as="geometry" />
        </mxCell>
        <mxCell id="ROnEN6a3R-uaIAG2ra3x-11" value="btnD" style="html=1;shadow=0;dashed=0;align=center;verticalAlign=middle;shape=mxgraph.arrows2.arrow;dy=0;dx=10;notch=0;fontFamily=Lucida Console;fontStyle=0" parent="1" vertex="1">
          <mxGeometry x="40" y="157" width="60" height="25" as="geometry" />
        </mxCell>
        <mxCell id="ROnEN6a3R-uaIAG2ra3x-13" value="led" style="html=1;shadow=0;dashed=0;align=center;verticalAlign=middle;shape=mxgraph.arrows2.arrow;dy=0;dx=10;notch=0;fontFamily=Lucida Console;fontStyle=0" parent="1" vertex="1">
          <mxGeometry x="540" y="119.5" width="60" height="25" as="geometry" />
        </mxCell>
        <mxCell id="ROnEN6a3R-uaIAG2ra3x-15" value="UUT" style="text;html=1;align=left;verticalAlign=bottom;whiteSpace=wrap;rounded=0;fontFamily=Lucida Console;fontStyle=0" parent="1" vertex="1">
          <mxGeometry x="230" y="20" width="190" height="20" as="geometry" />
        </mxCell>
        <mxCell id="p93wi-CWplY33jEhmcZn-3" value="" style="endArrow=none;html=1;rounded=0;strokeWidth=1;fontStyle=0" parent="1" edge="1">
          <mxGeometry width="50" height="50" relative="1" as="geometry">
            <mxPoint x="166" y="115.5" as="sourcePoint" />
            <mxPoint x="175" y="93.5" as="targetPoint" />
          </mxGeometry>
        </mxCell>
        <mxCell id="p93wi-CWplY33jEhmcZn-5" value="16" style="text;html=1;align=center;verticalAlign=bottom;whiteSpace=wrap;rounded=0;fontFamily=Lucida Console;fontStyle=0" parent="1" vertex="1">
          <mxGeometry x="460" y="145.5" width="61" height="20" as="geometry" />
        </mxCell>
        <mxCell id="p93wi-CWplY33jEhmcZn-6" value="" style="endArrow=none;html=1;rounded=0;strokeWidth=1;fontStyle=0" parent="1" edge="1">
          <mxGeometry width="50" height="50" relative="1" as="geometry">
            <mxPoint x="486" y="142" as="sourcePoint" />
            <mxPoint x="495" y="120" as="targetPoint" />
          </mxGeometry>
        </mxCell>
      </root>
    </mxGraphModel>
  </diagram>
</mxfile>
